<svg id="visual" viewBox="0 0 960 540" width="960" height="540" xmlns="http://www.w3.org/2000/svg" xmlns:xlink="http://www.w3.org/1999/xlink" version="1.1"><rect x="0" y="0" width="960" height="540" fill="#222831"></rect><defs><linearGradient id="grad1_0" x1="43.8%" y1="0%" x2="100%" y2="100%"><stop offset="14.444444444444446%" stop-color="#222831" stop-opacity="1"></stop><stop offset="85.55555555555554%" stop-color="#222831" stop-opacity="1"></stop></linearGradient></defs><defs><linearGradient id="grad2_0" x1="0%" y1="0%" x2="56.3%" y2="100%"><stop offset="14.444444444444446%" stop-color="#222831" stop-opacity="1"></stop><stop offset="85.55555555555554%" stop-color="#222831" stop-opacity="1"></stop></linearGradient></defs><g transform="translate(960, 0)"><path d="M0 486C-51.3 453.5 -102.7 421 -167.2 403.7C-231.8 386.5 -309.6 384.5 -343.7 343.7C-377.7 302.8 -367.9 223 -384.3 159.2C-400.8 95.4 -443.4 47.7 -486 0L0 0Z" fill="#393E46"></path></g><g transform="translate(0, 540)"><path d="M0 -486C70.1 -486.6 140.3 -487.1 186 -449C231.7 -410.9 253 -334 281.4 -281.4C309.8 -228.8 345.4 -200.5 380.6 -157.7C415.9 -114.8 451 -57.4 486 0L0 0Z" fill="#393E46"></path></g></svg>