<svg id="visual" viewBox="0 0 960 540" width="960" height="540" xmlns="http://www.w3.org/2000/svg" xmlns:xlink="http://www.w3.org/1999/xlink" version="1.1"><rect x="0" y="0" width="960" height="540" fill="#222831"></rect><defs><linearGradient id="grad1_0" x1="43.8%" y1="0%" x2="100%" y2="100%"><stop offset="14.444444444444446%" stop-color="#222831" stop-opacity="1"></stop><stop offset="85.55555555555554%" stop-color="#222831" stop-opacity="1"></stop></linearGradient></defs><defs><linearGradient id="grad2_0" x1="0%" y1="0%" x2="56.3%" y2="100%"><stop offset="14.444444444444446%" stop-color="#222831" stop-opacity="1"></stop><stop offset="85.55555555555554%" stop-color="#222831" stop-opacity="1"></stop></linearGradient></defs><g transform="translate(960, 0)"><path d="M0 486C-44.1 436.1 -88.2 386.3 -153.8 371.4C-219.4 356.5 -306.5 376.6 -343.7 343.7C-380.8 310.8 -368 224.9 -383.4 158.8C-398.8 92.7 -442.4 46.4 -486 0L0 0Z" fill="#393E46"></path></g><g transform="translate(0, 540)"><path d="M0 -486C53.6 -455.6 107.1 -425.3 168.4 -406.5C229.6 -387.7 298.6 -380.5 343.7 -343.7C388.7 -306.8 409.9 -240.2 429.6 -177.9C449.3 -115.7 467.7 -57.9 486 0L0 0Z" fill="#393E46"></path></g></svg>